<svg xmlns="http://www.w3.org/2000/svg" width="155" height="75" viewBox="0 0 155 75" fill="none"><path d="M13.5787 38.872C11.056 38.872 9.06134 38.0653 7.59468 36.452C6.15734 34.868 5.43868 32.6973 5.43868 29.94C5.43868 29.6173 5.43868 29.3093 5.43868 29.016C5.46801 28.7227 5.49734 28.4147 5.52668 28.092C5.84934 25.3053 6.68534 22.592 8.03468 19.952C9.41334 17.312 11.2467 14.8773 13.5347 12.648C12.3613 12.4133 11.0853 12.1053 9.70668 11.724C8.35734 11.3133 7.08134 10.8147 5.87868 10.228C4.67601 9.64133 3.67868 8.95199 2.88668 8.15999C2.12401 7.36799 1.74268 6.45866 1.74268 5.43199C1.74268 4.63999 2.12401 4.00933 2.88668 3.53999C3.64934 3.04133 4.63201 2.79199 5.83468 2.79199C6.83201 2.79199 7.97601 2.95333 9.26668 3.27599C10.5867 3.59866 11.8773 4.00933 13.1387 4.50799C14.4 5.00666 15.4267 5.51999 16.2187 6.04799C16.336 6.13599 16.4827 6.26799 16.6587 6.44399C16.8347 6.59066 16.9227 6.78133 16.9227 7.01599C16.9227 7.22133 16.82 7.36799 16.6147 7.45599C16.4387 7.54399 16.2773 7.52933 16.1307 7.41199C14.6933 6.64933 13.0067 6.04799 11.0707 5.60799C9.16401 5.16799 7.33068 4.94799 5.57068 4.94799C4.48534 4.94799 3.94268 5.21199 3.94268 5.73999C3.94268 6.20933 4.28001 6.78133 4.95468 7.45599C6.15734 8.57066 7.63868 9.46533 9.39868 10.14C11.1587 10.8147 12.904 11.3133 14.6347 11.636C15.6907 10.7267 16.776 9.90533 17.8907 9.17199C19.0347 8.43866 20.208 7.79333 21.4107 7.23599C24.8427 5.73999 28.7 4.99199 32.9827 4.99199C34.8013 5.10933 36.2093 5.46133 37.2067 6.04799C38.2333 6.63466 38.7467 7.44133 38.7467 8.46799C38.7467 9.49466 38.248 10.3747 37.2507 11.108C36.2827 11.8413 34.86 12.4133 32.9827 12.824C32.1027 13 31.1493 13.1467 30.1227 13.264C29.096 13.3813 28.1133 13.4693 27.1747 13.528C26.236 13.5573 25.4587 13.572 24.8427 13.572C23.728 13.572 22.6133 13.5573 21.4987 13.528C20.384 13.4987 19.2693 13.4253 18.1547 13.308C17.216 14.1293 16.3213 15.024 15.4707 15.992C14.6493 16.9307 13.872 17.9573 13.1387 19.072C11.2027 22.152 9.97068 25.2027 9.44268 28.224C9.32534 28.752 9.23734 29.28 9.17868 29.808C9.14934 30.336 9.13468 30.864 9.13468 31.392C9.13468 35.4107 10.7627 37.42 14.0187 37.42C15.016 37.42 16.1307 37.2 17.3627 36.76C19.7093 35.8507 22.0707 34.3253 24.4467 32.184C25.004 31.6853 25.5173 31.172 25.9867 30.644C26.4853 30.0867 26.94 29.5293 27.3507 28.972C29.1987 26.4787 30.1227 24.22 30.1227 22.196C30.1227 21.668 29.9907 21.3013 29.7267 21.096C29.492 20.8613 29.0813 20.744 28.4947 20.744C27.7613 20.744 26.9547 20.964 26.0747 21.404C24.4027 22.2547 22.584 23.6773 20.6187 25.672C20.1493 26.1413 19.724 26.6253 19.3427 27.124C18.9613 27.5933 18.6093 28.0627 18.2867 28.532C16.7907 30.6147 16.0427 32.3453 16.0427 33.724C16.0427 33.988 15.984 34.2373 15.8667 34.472C15.7493 34.6773 15.5733 34.78 15.3387 34.78C14.9573 34.78 14.7667 34.4867 14.7667 33.9C14.7667 33.0493 14.928 32.1693 15.2507 31.26C15.6027 30.3213 15.94 29.4853 16.2627 28.752C16.8493 27.6667 17.568 26.552 18.4187 25.408C19.2693 24.2347 20.2227 23.1493 21.2787 22.152C22.364 21.1547 23.508 20.348 24.7107 19.732C25.9427 19.116 27.204 18.808 28.4947 18.808C31.1053 18.808 32.4107 19.952 32.4107 22.24C32.4107 24.3227 31.8827 26.376 30.8267 28.4C29.7707 30.424 28.2747 32.2573 26.3387 33.9C24.4613 35.4547 22.408 36.672 20.1787 37.552C17.9493 38.432 15.7493 38.872 13.5787 38.872ZM20.7067 12.032C22.0267 12.032 23.4347 11.9733 24.9307 11.856C26.456 11.7387 27.9667 11.548 29.4627 11.284C30.988 11.02 32.3667 10.6827 33.5987 10.272C33.9213 10.184 34.244 10.0813 34.5667 9.96399C34.9187 9.84666 35.2413 9.71466 35.5347 9.56799C35.7693 9.42133 36.0627 9.23066 36.4147 8.99599C36.796 8.73199 36.9867 8.48266 36.9867 8.24799C36.9867 7.92533 36.664 7.69066 36.0187 7.54399C35.4027 7.39733 34.508 7.32399 33.3347 7.32399C28.3773 7.32399 23.8307 8.89333 19.6947 12.032H20.7067Z" fill="black"></path><path d="M36.0675 35.396C34.9822 35.396 34.0875 34.9413 33.3835 34.032C32.7088 33.1227 32.3715 31.9933 32.3715 30.644C32.3715 29.5293 32.5475 28.4733 32.8995 27.476C33.6035 25.54 34.7768 23.7067 36.4195 21.976C37.5928 20.8027 38.8102 19.864 40.0715 19.16C41.3622 18.4267 42.5062 18.06 43.5035 18.06C44.3542 18.06 45.0288 18.28 45.5275 18.72C46.0555 19.16 46.3195 19.688 46.3195 20.304C46.3195 20.568 46.2462 20.8907 46.0995 21.272C46.4222 21.3013 46.7302 21.3307 47.0235 21.36C47.3168 21.36 47.6102 21.36 47.9035 21.36C48.4902 21.36 49.0622 21.3307 49.6195 21.272C50.2062 21.2133 50.7635 21.1253 51.2915 21.008H51.5115C51.8928 21.008 52.0835 21.14 52.0835 21.404C52.0835 21.6093 51.9075 21.7853 51.5555 21.932C51.2622 22.0493 50.7782 22.1667 50.1035 22.284C49.4582 22.4013 48.7542 22.504 47.9915 22.592C47.2582 22.6507 46.5982 22.68 46.0115 22.68C45.8062 22.68 45.6155 22.68 45.4395 22.68C45.2928 22.68 45.1608 22.6653 45.0435 22.636L44.8675 22.724C45.1608 23.1933 45.3075 23.8533 45.3075 24.704C45.3075 25.8773 45.0142 27.0947 44.4275 28.356C43.8702 29.588 43.1222 30.7467 42.1835 31.832C41.2742 32.888 40.2768 33.7533 39.1915 34.428C38.1062 35.0733 37.0648 35.396 36.0675 35.396ZM36.4635 33.9C37.2262 33.9 37.9742 33.6213 38.7075 33.064C39.4408 32.5067 40.1155 31.7733 40.7315 30.864C41.3475 29.9547 41.8608 28.972 42.2715 27.916C42.7115 26.86 42.9902 25.848 43.1075 24.88C43.1368 24.704 43.1515 24.5427 43.1515 24.396C43.1515 24.22 43.1515 24.0733 43.1515 23.956C43.1515 23.516 43.1075 23.164 43.0195 22.9H42.9315C42.5502 22.812 42.2715 22.724 42.0955 22.636C41.9195 22.5187 41.7435 22.372 41.5675 22.196L41.5235 22.152C41.4062 22.0347 41.3328 21.932 41.3035 21.844C41.3035 21.7267 41.3035 21.6093 41.3035 21.492C41.3035 21.228 41.4062 21.0227 41.6115 20.876C41.8168 20.7 42.0662 20.6413 42.3595 20.7L44.5595 21.096C44.7942 20.6267 44.9115 20.26 44.9115 19.996C44.9115 19.4093 44.4568 19.116 43.5475 19.116C42.7555 19.116 41.8902 19.5267 40.9515 20.348C40.0422 21.14 39.1622 22.1373 38.3115 23.34C37.4902 24.5133 36.7715 25.6867 36.1555 26.86C35.8622 27.4467 35.6128 28.1653 35.4075 29.016C35.2022 29.8373 35.0995 30.6293 35.0995 31.392C35.0995 32.096 35.2022 32.6973 35.4075 33.196C35.6422 33.6653 35.9942 33.9 36.4635 33.9Z" fill="black"></path><path d="M56.2638 35.264C55.2078 35.264 54.6798 34.5453 54.6798 33.108C54.6798 32.1107 54.9732 30.9667 55.5598 29.676C56.1465 28.356 56.7772 27.0507 57.4518 25.76C58.0385 24.5573 58.5665 23.428 59.0358 22.372C59.5345 21.316 59.7838 20.436 59.7838 19.732C59.7838 19.028 59.5932 18.676 59.2118 18.676C58.9185 18.676 58.5225 18.852 58.0238 19.204C57.4958 19.5853 56.8945 20.2013 56.2198 21.052L55.3838 22.064C55.2665 22.24 55.1345 22.416 54.9878 22.592C54.8705 22.768 54.7385 22.9293 54.5918 23.076C53.7705 24.1613 52.9198 25.3053 52.0398 26.508C51.1892 27.6813 50.4118 28.7667 49.7078 29.764C49.0332 30.7613 48.5198 31.568 48.1678 32.184C47.8745 32.7413 47.5078 33.02 47.0678 33.02C46.7745 33.02 46.5252 32.9027 46.3198 32.668C46.1145 32.404 46.0118 32.0667 46.0118 31.656C46.0118 31.4213 46.0558 31.172 46.1438 30.908C46.7305 29.8227 47.2878 28.6933 47.8158 27.52C48.3438 26.3467 48.8572 25.1733 49.3558 24C49.7665 23.032 50.1772 22.0933 50.5878 21.184C51.0278 20.2453 51.4532 19.3653 51.8638 18.544C52.1278 18.0453 52.5825 17.5907 53.2278 17.18C53.8732 16.7693 54.4598 16.564 54.9878 16.564C55.5745 16.564 55.8678 16.784 55.8678 17.224C55.8678 17.5467 55.7212 17.9427 55.4278 18.412C55.0172 19.0573 54.4598 19.9667 53.7558 21.14C53.0812 22.284 52.4505 23.3987 51.8638 24.484C52.1278 24.132 52.4212 23.7507 52.7438 23.34C53.0665 22.9 53.4185 22.4453 53.7998 21.976L55.2078 20.304C56.0585 19.2773 56.8945 18.5293 57.7158 18.06C58.5372 17.5613 59.3585 17.312 60.1798 17.312C61.6172 17.312 62.3358 17.972 62.3358 19.292C62.3358 20.084 62.1745 20.8613 61.8518 21.624C61.5292 22.3867 61.2652 22.988 61.0598 23.428C59.7398 26.244 58.7718 28.5173 58.1558 30.248C57.5692 31.9787 57.4225 32.844 57.7158 32.844C58.0092 32.844 58.4638 32.6387 59.0798 32.228C59.7252 31.788 60.5025 31.1867 61.4118 30.424C61.8812 29.984 62.3505 29.5147 62.8198 29.016C63.2892 28.5173 63.7732 27.9747 64.2718 27.388C64.4772 27.1533 64.6678 27.036 64.8438 27.036C65.0492 27.036 65.1518 27.1973 65.1518 27.52C65.1518 27.8427 65.0492 28.1653 64.8438 28.488C64.6678 28.7813 64.3745 29.1773 63.9638 29.676C63.5825 30.1453 63.1865 30.6 62.7758 31.04C61.3385 32.5947 59.7985 33.812 58.1558 34.692C57.8918 34.8387 57.6572 34.9413 57.4518 35C57.2758 35.088 57.1145 35.1467 56.9678 35.176C56.8505 35.2053 56.7332 35.22 56.6158 35.22C56.5278 35.2493 56.4105 35.264 56.2638 35.264Z" fill="black"></path><path d="M63.6631 42.964C62.9297 42.964 62.3724 42.6707 61.9911 42.084C61.5804 41.5267 61.375 40.7493 61.375 39.752C61.375 39.5173 61.3897 39.2533 61.4191 38.96C61.4484 38.6667 61.4924 38.3733 61.5511 38.08C61.5804 38.0213 61.6097 37.9187 61.639 37.772C61.639 37.6547 61.6537 37.5373 61.6831 37.42C61.7711 36.98 61.8884 36.4227 62.035 35.748C62.1817 35.0733 62.3431 34.4133 62.5191 33.768C62.7831 32.6533 63.1497 31.4067 63.619 30.028C64.1177 28.62 64.6897 27.1387 65.3351 25.584C65.8337 24.4107 66.3324 23.3107 66.8311 22.284C67.3297 21.228 67.8284 20.216 68.327 19.248H62.6071C62.1377 19.248 61.903 19.116 61.903 18.852C61.903 18.3533 62.299 18.104 63.091 18.104H68.9431C69.6764 16.8133 70.439 15.5813 71.231 14.408C72.023 13.2347 72.8884 12.1493 73.827 11.152C74.355 10.536 74.8391 10.1107 75.2791 9.87599C75.7484 9.61199 76.2031 9.43599 76.6431 9.34799C77.1124 9.23066 77.6257 9.11333 78.1831 8.99599L78.4031 9.34799C77.1417 10.9027 76.0124 12.384 75.0151 13.792C74.0177 15.2 73.0937 16.6373 72.243 18.104H78.3591C78.8577 18.104 79.107 18.2507 79.107 18.544C79.107 18.6907 78.9897 18.852 78.7551 19.028C78.5497 19.1747 78.2711 19.248 77.9191 19.248H71.5831C70.9084 20.4507 70.2484 21.7267 69.6031 23.076C68.9577 24.4253 68.283 25.892 67.579 27.476C66.963 28.8253 66.4057 30.2773 65.9071 31.832C65.4084 33.3573 65.0124 34.7507 64.7191 36.012C64.4551 37.2733 64.3231 38.1827 64.3231 38.74C64.3231 39.9427 64.6164 40.544 65.2031 40.544C65.4964 40.544 65.8924 40.3827 66.3911 40.06C67.5351 39.356 68.547 38.6227 69.427 37.86C70.3364 37.1267 71.2017 36.364 72.023 35.572C72.6097 35.0147 73.299 34.3107 74.091 33.46C74.883 32.58 75.6164 31.7733 76.2911 31.04C76.4377 30.8933 76.5697 30.7467 76.687 30.6C76.8044 30.4533 76.9217 30.3213 77.0391 30.204L77.787 29.368C77.9044 29.2507 78.0364 29.192 78.1831 29.192C78.5351 29.192 78.7111 29.368 78.7111 29.72C78.7111 29.8667 78.6231 30.0573 78.4471 30.292C78.2711 30.556 78.0951 30.776 77.9191 30.952L77.3911 31.612C76.1297 33.196 74.7364 34.78 73.2111 36.364C71.6857 37.948 70.1017 39.4 68.4591 40.72C67.7844 41.248 67.0657 41.7467 66.303 42.216C65.5697 42.7147 64.6897 42.964 63.6631 42.964Z" fill="black"></path><path d="M80.3311 41.556C79.0991 41.556 78.1458 41.0573 77.4711 40.06C76.8258 39.092 76.5031 37.7427 76.5031 36.012C76.5031 35.4253 76.5471 34.8093 76.6351 34.164C76.8405 32.5213 77.3391 30.8347 78.1311 29.104C78.9231 27.3733 79.9938 25.6427 81.3431 23.912C82.3111 22.6507 83.3965 21.6827 84.5991 21.008C85.8018 20.304 86.9751 19.952 88.1191 19.952C88.9405 19.952 89.6591 20.1133 90.2751 20.436C91.0378 20.876 91.4191 21.624 91.4191 22.68C91.4191 23.4427 91.1551 24.2933 90.6271 25.232C90.0991 26.1413 89.1898 27.0213 87.8991 27.872C86.2565 28.8987 84.8631 29.6027 83.7191 29.984C82.6045 30.336 81.7098 30.5413 81.0351 30.6C80.8298 30.9227 80.6098 31.4213 80.3751 32.096C80.1698 32.7413 79.9791 33.4307 79.8031 34.164C79.6565 34.868 79.5538 35.4987 79.4951 36.056C79.4951 36.1733 79.4805 36.2907 79.4511 36.408C79.4511 36.5547 79.4511 36.7013 79.4511 36.848C79.4511 38.8427 80.0818 39.84 81.3431 39.84C82.0178 39.84 82.7805 39.5907 83.6311 39.092C84.5111 38.5933 85.3618 37.992 86.1831 37.288C87.0338 36.584 87.7818 35.8947 88.4271 35.22C89.1018 34.5747 89.5711 34.0907 89.8351 33.768L93.0911 29.984L93.9711 28.972C94.1178 28.796 94.2645 28.62 94.4111 28.444C94.5578 28.268 94.7045 28.1067 94.8511 27.96C94.9685 27.8133 95.1005 27.74 95.2471 27.74C95.5698 27.74 95.7311 27.916 95.7311 28.268C95.7311 28.444 95.6431 28.6493 95.4671 28.884C95.1738 29.2947 94.8365 29.72 94.4551 30.16C94.1031 30.6 93.7658 31.0107 93.4431 31.392L91.9471 33.196C91.3605 33.9 90.7298 34.648 90.0551 35.44C89.3805 36.2613 88.7205 36.98 88.0751 37.596C85.3471 40.236 82.7658 41.556 80.3311 41.556ZM81.7391 29.368C82.3258 29.2213 83.0151 28.9133 83.8071 28.444C84.6285 27.9747 85.4058 27.476 86.1391 26.948C86.9018 26.42 87.4885 25.98 87.8991 25.628C88.5151 25.1293 88.9845 24.572 89.3071 23.956C89.6298 23.34 89.7911 22.812 89.7911 22.372C89.7911 21.756 89.5418 21.448 89.0431 21.448C88.8085 21.448 88.5591 21.5067 88.2951 21.624C87.5911 21.9467 86.8285 22.5627 86.0071 23.472C85.1858 24.3813 84.3938 25.3787 83.6311 26.464C82.8978 27.5493 82.2671 28.5173 81.7391 29.368Z" fill="black"></path><path d="M106.873 42.964C106.169 42.964 105.597 42.6413 105.157 41.996C104.747 41.38 104.541 40.6467 104.541 39.796C104.541 39.5907 104.556 39.3853 104.585 39.18C104.644 38.9747 104.688 38.7693 104.717 38.564C104.864 37.9773 105.099 37.2587 105.421 36.408C105.744 35.5573 106.111 34.6627 106.521 33.724C106.932 32.7853 107.357 31.8907 107.797 31.04C108.237 30.16 108.648 29.412 109.029 28.796C109.176 28.5907 109.411 28.224 109.733 27.696C110.056 27.1387 110.393 26.552 110.745 25.936C111.127 25.32 111.435 24.7773 111.669 24.308C111.933 23.8093 112.124 23.4133 112.241 23.12C112.359 22.8267 112.417 22.6213 112.417 22.504C112.417 22.416 112.388 22.372 112.329 22.372C112.183 22.372 111.816 22.6213 111.229 23.12C110.496 23.7653 109.675 24.5867 108.765 25.584C107.856 26.552 106.947 27.608 106.037 28.752C105.128 29.896 104.307 31.0107 103.573 32.096C103.133 32.9467 102.488 33.372 101.637 33.372C100.845 33.372 100.449 32.976 100.449 32.184C100.449 31.5093 100.787 30.5853 101.461 29.412C102.136 28.2387 102.884 27.0213 103.705 25.76C104.263 24.9093 104.805 24.044 105.333 23.164C105.861 22.284 106.301 21.4773 106.653 20.744C106.888 20.2453 107.064 19.8493 107.181 19.556C107.299 19.2333 107.357 19.0133 107.357 18.896C107.357 18.5147 106.785 18.8373 105.641 19.864C105.348 20.128 105.04 20.4213 104.717 20.744C104.395 21.0373 104.057 21.3893 103.705 21.8C103.001 22.5627 102.283 23.4133 101.549 24.352C100.816 25.2613 100.097 26.2 99.3935 27.168C99.0415 27.6667 98.7041 28.1507 98.3815 28.62C98.0588 29.0893 97.7361 29.5587 97.4135 30.028C96.7681 30.9373 96.1961 31.788 95.6975 32.58C95.1988 33.372 94.8175 34.032 94.5535 34.56C94.4361 34.8533 94.2601 35.0587 94.0255 35.176C93.8201 35.2933 93.6001 35.352 93.3655 35.352C93.0721 35.352 92.8081 35.2347 92.5735 35C92.3095 34.736 92.2068 34.3693 92.2655 33.9L92.3095 33.856C92.9548 32.5947 93.4828 31.4653 93.8935 30.468C94.3335 29.4413 94.7441 28.4293 95.1255 27.432C95.4481 26.552 95.7855 25.6573 96.1375 24.748C96.5188 23.8387 96.9881 22.856 97.5455 21.8C97.7801 21.3013 98.2201 20.8467 98.8655 20.436C99.5401 20.0253 100.127 19.82 100.625 19.82C101.241 19.82 101.549 20.04 101.549 20.48C101.549 20.7733 101.388 21.1693 101.065 21.668C100.743 22.196 100.317 22.944 99.7895 23.912C99.2615 24.88 98.7481 25.848 98.2495 26.816C98.7188 26.1413 99.2468 25.4227 99.8335 24.66C100.42 23.868 101.036 23.0613 101.681 22.24C102.473 21.272 103.295 20.3627 104.145 19.512C106.023 17.664 107.533 16.828 108.677 17.004C109.909 17.2093 110.525 17.9427 110.525 19.204C110.525 19.5267 110.349 19.996 109.997 20.612C109.675 21.228 109.264 21.9027 108.765 22.636C108.296 23.34 107.827 24.0293 107.357 24.704C107.064 25.1147 106.785 25.5107 106.521 25.892C106.257 26.244 106.052 26.552 105.905 26.816C105.788 27.0213 105.612 27.2853 105.377 27.608C105.172 27.9307 104.952 28.2827 104.717 28.664C105.187 28.0187 105.685 27.3587 106.213 26.684C106.741 26.0093 107.255 25.3933 107.753 24.836C108.868 23.5747 109.909 22.6067 110.877 21.932C111.875 21.228 112.696 20.876 113.341 20.876C114.485 20.876 115.057 21.448 115.057 22.592C115.057 23.296 114.397 24.7773 113.077 27.036C112.872 27.4173 112.564 28.0187 112.153 28.84C111.743 29.6613 111.303 30.5413 110.833 31.48C110.393 32.4187 109.997 33.2547 109.645 33.988C109.293 34.7507 108.912 35.6013 108.501 36.54C108.12 37.508 107.783 38.432 107.489 39.312C107.196 40.192 107.02 40.896 106.961 41.424C106.932 41.5413 106.976 41.6147 107.093 41.644C107.299 41.644 107.577 41.5413 107.929 41.336C108.252 41.16 108.751 40.7347 109.425 40.06C110.1 39.3853 110.833 38.6227 111.625 37.772C112.447 36.9507 113.195 36.1587 113.869 35.396C114.544 34.6627 115.028 34.12 115.321 33.768L117.389 31.348C117.683 30.996 117.917 30.7173 118.093 30.512C118.299 30.2773 118.46 30.1013 118.577 29.984L119.457 28.972C119.604 28.796 119.751 28.62 119.897 28.444C120.044 28.268 120.191 28.1067 120.337 27.96C120.455 27.8133 120.587 27.74 120.733 27.74C121.085 27.74 121.261 27.9307 121.261 28.312C121.261 28.5173 121.173 28.708 120.997 28.884C120.675 29.2947 120.323 29.72 119.941 30.16C119.589 30.6 119.252 31.0107 118.929 31.392L116.289 34.692L111.889 40.104C111.303 40.7787 110.569 41.424 109.689 42.04C108.839 42.656 107.9 42.964 106.873 42.964Z" fill="black"></path><path d="M112.686 53.876C112.393 53.876 112.099 53.5387 111.806 52.864C111.483 52.1893 111.322 51.3533 111.322 50.356C111.322 50.1213 111.337 49.872 111.366 49.608C111.395 49.344 111.439 49.08 111.498 48.816C111.85 47.408 112.334 45.824 112.95 44.064C114.211 40.5733 115.825 36.7453 117.79 32.58C118.289 31.5827 118.773 30.6 119.242 29.632C119.711 28.664 120.181 27.7107 120.65 26.772C121.589 24.924 122.483 23.1933 123.334 21.58C124.214 19.9667 124.991 18.5733 125.666 17.4C126.722 15.6693 127.675 14.364 128.526 13.484C129.406 12.5747 130.257 11.9293 131.078 11.548C131.899 11.1667 132.765 10.888 133.674 10.712L133.894 11.108C133.483 11.4893 133.043 11.944 132.574 12.472C132.134 13 131.665 13.6013 131.166 14.276C130.198 15.5667 129.215 17.004 128.218 18.588C127.221 20.172 126.209 21.8293 125.182 23.56C124.683 24.44 124.199 25.32 123.73 26.2C123.261 27.0507 122.791 27.9013 122.322 28.752C121.559 30.1893 120.841 31.5827 120.166 32.932C121.105 31.26 122.029 29.676 122.938 28.18C123.877 26.6547 124.713 25.3933 125.446 24.396C126.473 23.0467 127.47 21.9907 128.438 21.228C129.406 20.4653 130.227 20.084 130.902 20.084C132.515 20.084 133.322 21.008 133.322 22.856C133.322 23.2373 133.278 23.6773 133.19 24.176C132.985 25.4667 132.515 26.8307 131.782 28.268C131.049 29.676 130.139 30.996 129.054 32.228C127.969 33.46 126.766 34.4573 125.446 35.22C124.155 36.012 122.806 36.408 121.398 36.408C120.87 36.408 120.445 36.232 120.122 35.88C119.301 37.4933 118.45 39.2387 117.57 41.116C116.661 43.0227 115.693 45.164 114.666 47.54C114.373 48.6253 114.094 49.652 113.83 50.62C113.566 51.6173 113.346 52.4973 113.17 53.26C113.053 53.6707 112.891 53.876 112.686 53.876ZM121.398 35.176C122.337 35.176 123.29 34.78 124.258 33.988C125.255 33.196 126.179 32.1987 127.03 30.996C127.91 29.764 128.614 28.5173 129.142 27.256C129.553 26.2 129.861 25.2467 130.066 24.396C130.301 23.516 130.418 22.856 130.418 22.416C130.418 22.0347 130.345 21.844 130.198 21.844C129.435 21.844 128.277 22.9147 126.722 25.056C125.695 26.5227 124.683 28.048 123.686 29.632C122.689 31.1867 121.677 32.9467 120.65 34.912C120.797 35.088 121.046 35.176 121.398 35.176Z" fill="black"></path><path d="M136.829 35.396C135.744 35.396 134.849 34.9413 134.145 34.032C133.471 33.1227 133.133 31.9933 133.133 30.644C133.133 29.5293 133.309 28.4733 133.661 27.476C134.365 25.54 135.539 23.7067 137.181 21.976C138.355 20.8027 139.572 19.864 140.833 19.16C142.124 18.4267 143.268 18.06 144.265 18.06C145.116 18.06 145.791 18.28 146.289 18.72C146.817 19.16 147.081 19.688 147.081 20.304C147.081 20.568 147.008 20.8907 146.861 21.272C147.184 21.3013 147.492 21.3307 147.785 21.36C148.079 21.36 148.372 21.36 148.665 21.36C149.252 21.36 149.824 21.3307 150.381 21.272C150.968 21.2133 151.525 21.1253 152.053 21.008H152.273C152.655 21.008 152.845 21.14 152.845 21.404C152.845 21.6093 152.669 21.7853 152.317 21.932C152.024 22.0493 151.54 22.1667 150.865 22.284C150.22 22.4013 149.516 22.504 148.753 22.592C148.02 22.6507 147.36 22.68 146.773 22.68C146.568 22.68 146.377 22.68 146.201 22.68C146.055 22.68 145.923 22.6653 145.805 22.636L145.629 22.724C145.923 23.1933 146.069 23.8533 146.069 24.704C146.069 25.8773 145.776 27.0947 145.189 28.356C144.632 29.588 143.884 30.7467 142.945 31.832C142.036 32.888 141.039 33.7533 139.953 34.428C138.868 35.0733 137.827 35.396 136.829 35.396ZM137.225 33.9C137.988 33.9 138.736 33.6213 139.469 33.064C140.203 32.5067 140.877 31.7733 141.493 30.864C142.109 29.9547 142.623 28.972 143.033 27.916C143.473 26.86 143.752 25.848 143.869 24.88C143.899 24.704 143.913 24.5427 143.913 24.396C143.913 24.22 143.913 24.0733 143.913 23.956C143.913 23.516 143.869 23.164 143.781 22.9H143.693C143.312 22.812 143.033 22.724 142.857 22.636C142.681 22.5187 142.505 22.372 142.329 22.196L142.285 22.152C142.168 22.0347 142.095 21.932 142.065 21.844C142.065 21.7267 142.065 21.6093 142.065 21.492C142.065 21.228 142.168 21.0227 142.373 20.876C142.579 20.7 142.828 20.6413 143.121 20.7L145.321 21.096C145.556 20.6267 145.673 20.26 145.673 19.996C145.673 19.4093 145.219 19.116 144.309 19.116C143.517 19.116 142.652 19.5267 141.713 20.348C140.804 21.14 139.924 22.1373 139.073 23.34C138.252 24.5133 137.533 25.6867 136.917 26.86C136.624 27.4467 136.375 28.1653 136.169 29.016C135.964 29.8373 135.861 30.6293 135.861 31.392C135.861 32.096 135.964 32.6973 136.169 33.196C136.404 33.6653 136.756 33.9 137.225 33.9Z" fill="black"></path><path d="M25.2288 69C25.1115 69 25.0208 68.968 24.9568 68.904C24.8928 68.8293 24.8608 68.7387 24.8608 68.632V58.184C24.8608 58.0667 24.8928 57.976 24.9568 57.912C25.0208 57.8373 25.1115 57.8 25.2288 57.8H28.8608C29.9595 57.8 30.8448 57.9653 31.5168 58.296C32.1888 58.6267 32.6795 59.1173 32.9888 59.768C33.2982 60.408 33.4582 61.1973 33.4688 62.136C33.4795 62.616 33.4848 63.0373 33.4848 63.4C33.4848 63.7627 33.4795 64.1787 33.4688 64.648C33.4475 65.6293 33.2822 66.4453 32.9728 67.096C32.6742 67.736 32.1942 68.216 31.5328 68.536C30.8822 68.8453 30.0182 69 28.9408 69H25.2288ZM26.4288 67.64H28.8608C29.5968 67.64 30.1835 67.5387 30.6208 67.336C31.0582 67.1333 31.3728 66.808 31.5648 66.36C31.7675 65.912 31.8742 65.32 31.8848 64.584C31.9062 64.264 31.9168 63.9867 31.9168 63.752C31.9168 63.5067 31.9168 63.2667 31.9168 63.032C31.9168 62.7867 31.9062 62.5093 31.8848 62.2C31.8635 61.1653 31.6182 60.4027 31.1488 59.912C30.6795 59.4107 29.8902 59.16 28.7808 59.16H26.4288V67.64Z" fill="#717974"></path><path d="M38.0041 69.16C37.4708 69.16 36.9854 69.0533 36.5481 68.84C36.1108 68.6267 35.7588 68.3387 35.4921 67.976C35.2254 67.6133 35.0921 67.2027 35.0921 66.744C35.0921 66.008 35.3908 65.4213 35.9881 64.984C36.5854 64.5467 37.3641 64.2587 38.3241 64.12L40.7081 63.784V63.32C40.7081 62.808 40.5588 62.408 40.2601 62.12C39.9721 61.832 39.4974 61.688 38.8361 61.688C38.3561 61.688 37.9668 61.784 37.6681 61.976C37.3801 62.168 37.1774 62.4133 37.0601 62.712C36.9961 62.872 36.8841 62.952 36.7241 62.952H36.0041C35.8868 62.952 35.7961 62.92 35.7321 62.856C35.6788 62.7813 35.6521 62.696 35.6521 62.6C35.6521 62.44 35.7108 62.2427 35.8281 62.008C35.9561 61.7733 36.1481 61.544 36.4041 61.32C36.6601 61.096 36.9854 60.9093 37.3801 60.76C37.7854 60.6 38.2761 60.52 38.8521 60.52C39.4921 60.52 40.0308 60.6053 40.4681 60.776C40.9054 60.936 41.2468 61.1547 41.4921 61.432C41.7481 61.7093 41.9294 62.024 42.0361 62.376C42.1534 62.728 42.2121 63.0853 42.2121 63.448V68.632C42.2121 68.7387 42.1748 68.8293 42.1001 68.904C42.0361 68.968 41.9508 69 41.8441 69H41.1081C40.9908 69 40.9001 68.968 40.8361 68.904C40.7721 68.8293 40.7401 68.7387 40.7401 68.632V67.944C40.6014 68.136 40.4148 68.328 40.1801 68.52C39.9454 68.7013 39.6521 68.856 39.3001 68.984C38.9481 69.1013 38.5161 69.16 38.0041 69.16ZM38.3401 67.96C38.7774 67.96 39.1774 67.8693 39.5401 67.688C39.9028 67.496 40.1854 67.2027 40.3881 66.808C40.6014 66.4133 40.7081 65.9173 40.7081 65.32V64.872L38.8521 65.144C38.0948 65.2507 37.5241 65.432 37.1401 65.688C36.7561 65.9333 36.5641 66.248 36.5641 66.632C36.5641 66.9307 36.6494 67.1813 36.8201 67.384C37.0014 67.576 37.2254 67.72 37.4921 67.816C37.7694 67.912 38.0521 67.96 38.3401 67.96Z" fill="#717974"></path><path d="M44.8802 69C44.7735 69 44.6829 68.968 44.6082 68.904C44.5442 68.8293 44.5122 68.7387 44.5122 68.632V61.048C44.5122 60.9413 44.5442 60.856 44.6082 60.792C44.6829 60.7173 44.7735 60.68 44.8802 60.68H45.6322C45.7389 60.68 45.8242 60.7173 45.8882 60.792C45.9629 60.856 46.0002 60.9413 46.0002 61.048V61.752C46.2775 61.3893 46.6242 61.096 47.0402 60.872C47.4669 60.6373 48.0109 60.52 48.6722 60.52C49.3655 60.52 49.9522 60.6747 50.4322 60.984C50.9229 61.2827 51.2909 61.704 51.5362 62.248C51.7815 62.7813 51.9042 63.4053 51.9042 64.12V68.632C51.9042 68.7387 51.8722 68.8293 51.8082 68.904C51.7442 68.968 51.6589 69 51.5522 69H50.7522C50.6455 69 50.5549 68.968 50.4802 68.904C50.4162 68.8293 50.3842 68.7387 50.3842 68.632V64.2C50.3842 63.4533 50.2029 62.872 49.8402 62.456C49.4775 62.0293 48.9442 61.816 48.2402 61.816C47.5789 61.816 47.0455 62.0293 46.6402 62.456C46.2455 62.872 46.0482 63.4533 46.0482 64.2V68.632C46.0482 68.7387 46.0109 68.8293 45.9362 68.904C45.8722 68.968 45.7869 69 45.6802 69H44.8802Z" fill="#717974"></path><path d="M57.5753 69.16C56.818 69.16 56.162 69.016 55.6073 68.728C55.0633 68.4293 54.642 68.008 54.3433 67.464C54.0447 66.9093 53.8847 66.248 53.8633 65.48C53.8527 65.32 53.8473 65.1067 53.8473 64.84C53.8473 64.5733 53.8527 64.36 53.8633 64.2C53.8847 63.432 54.0447 62.776 54.3433 62.232C54.642 61.6773 55.0633 61.256 55.6073 60.968C56.162 60.6693 56.818 60.52 57.5753 60.52C58.194 60.52 58.722 60.6053 59.1593 60.776C59.6073 60.9467 59.9753 61.1653 60.2633 61.432C60.5513 61.6987 60.7647 61.9867 60.9033 62.296C61.0527 62.6053 61.1327 62.8987 61.1433 63.176C61.154 63.2827 61.122 63.368 61.0473 63.432C60.9727 63.496 60.882 63.528 60.7753 63.528H60.0073C59.9007 63.528 59.8207 63.5067 59.7673 63.464C59.714 63.4107 59.6607 63.3253 59.6073 63.208C59.4153 62.6853 59.154 62.3173 58.8233 62.104C58.4927 61.8907 58.082 61.784 57.5913 61.784C56.9513 61.784 56.4287 61.9813 56.0233 62.376C55.6287 62.7707 55.4153 63.4053 55.3833 64.28C55.3727 64.664 55.3727 65.0373 55.3833 65.4C55.4153 66.2853 55.6287 66.9253 56.0233 67.32C56.4287 67.704 56.9513 67.896 57.5913 67.896C58.082 67.896 58.4927 67.7893 58.8233 67.576C59.154 67.3627 59.4153 66.9947 59.6073 66.472C59.6607 66.3547 59.714 66.2747 59.7673 66.232C59.8207 66.1787 59.9007 66.152 60.0073 66.152H60.7753C60.882 66.152 60.9727 66.184 61.0473 66.248C61.122 66.312 61.154 66.3973 61.1433 66.504C61.1327 66.728 61.0847 66.9573 60.9993 67.192C60.914 67.4267 60.7753 67.6667 60.5833 67.912C60.402 68.1467 60.1727 68.36 59.8953 68.552C59.618 68.7333 59.282 68.8827 58.8873 69C58.5033 69.1067 58.066 69.16 57.5753 69.16Z" fill="#717974"></path><path d="M66.3555 69.16C65.2568 69.16 64.3821 68.824 63.7315 68.152C63.0808 67.4693 62.7235 66.5413 62.6595 65.368C62.6488 65.2293 62.6435 65.0533 62.6435 64.84C62.6435 64.616 62.6488 64.4347 62.6595 64.296C62.7021 63.5387 62.8781 62.8773 63.1875 62.312C63.4968 61.736 63.9181 61.2933 64.4515 60.984C64.9955 60.6747 65.6301 60.52 66.3555 60.52C67.1661 60.52 67.8435 60.6907 68.3875 61.032C68.9421 61.3733 69.3635 61.8587 69.6515 62.488C69.9395 63.1173 70.0835 63.8533 70.0835 64.696V64.968C70.0835 65.0853 70.0461 65.176 69.9715 65.24C69.9075 65.304 69.8221 65.336 69.7155 65.336H64.1795C64.1795 65.3467 64.1795 65.368 64.1795 65.4C64.1795 65.432 64.1795 65.4587 64.1795 65.48C64.2008 65.9173 64.2968 66.328 64.4675 66.712C64.6381 67.0853 64.8835 67.3893 65.2035 67.624C65.5235 67.8587 65.9075 67.976 66.3555 67.976C66.7395 67.976 67.0595 67.9173 67.3155 67.8C67.5715 67.6827 67.7795 67.5547 67.9395 67.416C68.0995 67.2667 68.2061 67.1547 68.2595 67.08C68.3555 66.9413 68.4301 66.8613 68.4835 66.84C68.5368 66.808 68.6221 66.792 68.7395 66.792H69.5075C69.6141 66.792 69.6995 66.824 69.7635 66.888C69.8381 66.9413 69.8701 67.0213 69.8595 67.128C69.8488 67.288 69.7635 67.4853 69.6035 67.72C69.4435 67.944 69.2141 68.168 68.9155 68.392C68.6168 68.616 68.2541 68.8027 67.8275 68.952C67.4008 69.0907 66.9101 69.16 66.3555 69.16ZM64.1795 64.232H68.5635V64.184C68.5635 63.704 68.4728 63.2773 68.2915 62.904C68.1208 62.5307 67.8701 62.2373 67.5395 62.024C67.2088 61.8 66.8141 61.688 66.3555 61.688C65.8968 61.688 65.5021 61.8 65.1715 62.024C64.8515 62.2373 64.6061 62.5307 64.4355 62.904C64.2648 63.2773 64.1795 63.704 64.1795 64.184V64.232Z" fill="#717974"></path><path d="M79.7265 69.16C78.7985 69.16 78.0198 69.0213 77.3905 68.744C76.7611 68.456 76.2758 68.088 75.9345 67.64C75.6038 67.1813 75.4278 66.696 75.4065 66.184C75.4065 66.0987 75.4385 66.024 75.5025 65.96C75.5771 65.8853 75.6625 65.848 75.7585 65.848H76.5745C76.7025 65.848 76.7985 65.88 76.8625 65.944C76.9265 66.008 76.9691 66.0827 76.9905 66.168C77.0438 66.424 77.1718 66.68 77.3745 66.936C77.5878 67.1813 77.8811 67.3893 78.2545 67.56C78.6385 67.72 79.1291 67.8 79.7265 67.8C80.6438 67.8 81.3158 67.64 81.7425 67.32C82.1798 66.9893 82.3985 66.552 82.3985 66.008C82.3985 65.6347 82.2811 65.336 82.0465 65.112C81.8225 64.8773 81.4758 64.6693 81.0065 64.488C80.5371 64.3067 79.9291 64.1093 79.1825 63.896C78.4038 63.672 77.7585 63.4267 77.2465 63.16C76.7345 62.8933 76.3505 62.5627 76.0945 62.168C75.8491 61.7733 75.7265 61.272 75.7265 60.664C75.7265 60.088 75.8811 59.576 76.1905 59.128C76.4998 58.6693 76.9425 58.3067 77.5185 58.04C78.1051 57.7733 78.8145 57.64 79.6465 57.64C80.3078 57.64 80.8838 57.7307 81.3745 57.912C81.8758 58.0827 82.2918 58.3173 82.6225 58.616C82.9531 58.904 83.2038 59.2187 83.3745 59.56C83.5451 59.8907 83.6358 60.216 83.6465 60.536C83.6465 60.6107 83.6198 60.6853 83.5665 60.76C83.5131 60.824 83.4278 60.856 83.3105 60.856H82.4625C82.3878 60.856 82.3078 60.8347 82.2225 60.792C82.1478 60.7493 82.0891 60.6693 82.0465 60.552C81.9825 60.1147 81.7371 59.7467 81.3105 59.448C80.8838 59.1493 80.3291 59 79.6465 59C78.9531 59 78.3878 59.1333 77.9505 59.4C77.5238 59.6667 77.3105 60.0827 77.3105 60.648C77.3105 61.0107 77.4118 61.3147 77.6145 61.56C77.8171 61.7947 78.1371 62.0027 78.5745 62.184C79.0118 62.3653 79.5825 62.5573 80.2865 62.76C81.1398 62.9947 81.8385 63.2453 82.3825 63.512C82.9265 63.768 83.3265 64.0933 83.5825 64.488C83.8491 64.872 83.9825 65.368 83.9825 65.976C83.9825 66.648 83.8065 67.224 83.4545 67.704C83.1025 68.1733 82.6065 68.536 81.9665 68.792C81.3371 69.0373 80.5905 69.16 79.7265 69.16Z" fill="#717974"></path><path d="M89.2316 69.16C88.4743 69.16 87.8183 69.016 87.2636 68.728C86.7196 68.4293 86.2983 68.008 85.9996 67.464C85.7009 66.9093 85.5409 66.248 85.5196 65.48C85.5089 65.32 85.5036 65.1067 85.5036 64.84C85.5036 64.5733 85.5089 64.36 85.5196 64.2C85.5409 63.432 85.7009 62.776 85.9996 62.232C86.2983 61.6773 86.7196 61.256 87.2636 60.968C87.8183 60.6693 88.4743 60.52 89.2316 60.52C89.8503 60.52 90.3783 60.6053 90.8156 60.776C91.2636 60.9467 91.6316 61.1653 91.9196 61.432C92.2076 61.6987 92.4209 61.9867 92.5596 62.296C92.7089 62.6053 92.7889 62.8987 92.7996 63.176C92.8103 63.2827 92.7783 63.368 92.7036 63.432C92.6289 63.496 92.5383 63.528 92.4316 63.528H91.6636C91.5569 63.528 91.4769 63.5067 91.4236 63.464C91.3703 63.4107 91.3169 63.3253 91.2636 63.208C91.0716 62.6853 90.8103 62.3173 90.4796 62.104C90.1489 61.8907 89.7383 61.784 89.2476 61.784C88.6076 61.784 88.0849 61.9813 87.6796 62.376C87.2849 62.7707 87.0716 63.4053 87.0396 64.28C87.0289 64.664 87.0289 65.0373 87.0396 65.4C87.0716 66.2853 87.2849 66.9253 87.6796 67.32C88.0849 67.704 88.6076 67.896 89.2476 67.896C89.7383 67.896 90.1489 67.7893 90.4796 67.576C90.8103 67.3627 91.0716 66.9947 91.2636 66.472C91.3169 66.3547 91.3703 66.2747 91.4236 66.232C91.4769 66.1787 91.5569 66.152 91.6636 66.152H92.4316C92.5383 66.152 92.6289 66.184 92.7036 66.248C92.7783 66.312 92.8103 66.3973 92.7996 66.504C92.7889 66.728 92.7409 66.9573 92.6556 67.192C92.5703 67.4267 92.4316 67.6667 92.2396 67.912C92.0583 68.1467 91.8289 68.36 91.5516 68.552C91.2743 68.7333 90.9383 68.8827 90.5436 69C90.1596 69.1067 89.7223 69.16 89.2316 69.16Z" fill="#717974"></path><path d="M95.0837 69C94.9771 69 94.8864 68.968 94.8117 68.904C94.7477 68.8293 94.7157 68.7387 94.7157 68.632V58.008C94.7157 57.9013 94.7477 57.816 94.8117 57.752C94.8864 57.6773 94.9771 57.64 95.0837 57.64H95.8837C96.001 57.64 96.0917 57.6773 96.1557 57.752C96.2197 57.816 96.2517 57.9013 96.2517 58.008V61.736C96.5397 61.3733 96.8917 61.08 97.3077 60.856C97.7237 60.632 98.2517 60.52 98.8917 60.52C99.585 60.52 100.172 60.6747 100.652 60.984C101.142 61.2827 101.51 61.704 101.756 62.248C102.012 62.7813 102.14 63.4053 102.14 64.12V68.632C102.14 68.7387 102.108 68.8293 102.044 68.904C101.98 68.968 101.889 69 101.772 69H100.972C100.865 69 100.774 68.968 100.7 68.904C100.636 68.8293 100.604 68.7387 100.604 68.632V64.2C100.604 63.4533 100.422 62.872 100.06 62.456C99.697 62.0293 99.1637 61.816 98.4597 61.816C97.7984 61.816 97.2651 62.0293 96.8597 62.456C96.4544 62.872 96.2517 63.4533 96.2517 64.2V68.632C96.2517 68.7387 96.2197 68.8293 96.1557 68.904C96.0917 68.968 96.001 69 95.8837 69H95.0837Z" fill="#717974"></path><path d="M107.858 69.16C107.047 69.16 106.37 69.0053 105.826 68.696C105.282 68.3867 104.866 67.96 104.578 67.416C104.29 66.8613 104.13 66.232 104.098 65.528C104.087 65.3467 104.082 65.1173 104.082 64.84C104.082 64.552 104.087 64.3227 104.098 64.152C104.13 63.4373 104.29 62.808 104.578 62.264C104.876 61.72 105.298 61.2933 105.842 60.984C106.386 60.6747 107.058 60.52 107.858 60.52C108.658 60.52 109.33 60.6747 109.874 60.984C110.418 61.2933 110.834 61.72 111.122 62.264C111.42 62.808 111.586 63.4373 111.618 64.152C111.628 64.3227 111.634 64.552 111.634 64.84C111.634 65.1173 111.628 65.3467 111.618 65.528C111.586 66.232 111.426 66.8613 111.138 67.416C110.85 67.96 110.434 68.3867 109.89 68.696C109.346 69.0053 108.668 69.16 107.858 69.16ZM107.858 67.928C108.519 67.928 109.047 67.72 109.442 67.304C109.836 66.8773 110.05 66.2587 110.082 65.448C110.092 65.288 110.098 65.0853 110.098 64.84C110.098 64.5947 110.092 64.392 110.082 64.232C110.05 63.4213 109.836 62.808 109.442 62.392C109.047 61.9653 108.519 61.752 107.858 61.752C107.196 61.752 106.663 61.9653 106.258 62.392C105.863 62.808 105.655 63.4213 105.634 64.232C105.623 64.392 105.618 64.5947 105.618 64.84C105.618 65.0853 105.623 65.288 105.634 65.448C105.655 66.2587 105.863 66.8773 106.258 67.304C106.663 67.72 107.196 67.928 107.858 67.928Z" fill="#717974"></path><path d="M117.045 69.16C116.235 69.16 115.557 69.0053 115.013 68.696C114.469 68.3867 114.053 67.96 113.765 67.416C113.477 66.8613 113.317 66.232 113.285 65.528C113.275 65.3467 113.269 65.1173 113.269 64.84C113.269 64.552 113.275 64.3227 113.285 64.152C113.317 63.4373 113.477 62.808 113.765 62.264C114.064 61.72 114.485 61.2933 115.029 60.984C115.573 60.6747 116.245 60.52 117.045 60.52C117.845 60.52 118.517 60.6747 119.061 60.984C119.605 61.2933 120.021 61.72 120.309 62.264C120.608 62.808 120.773 63.4373 120.805 64.152C120.816 64.3227 120.821 64.552 120.821 64.84C120.821 65.1173 120.816 65.3467 120.805 65.528C120.773 66.232 120.613 66.8613 120.325 67.416C120.037 67.96 119.621 68.3867 119.077 68.696C118.533 69.0053 117.856 69.16 117.045 69.16ZM117.045 67.928C117.707 67.928 118.235 67.72 118.629 67.304C119.024 66.8773 119.237 66.2587 119.269 65.448C119.28 65.288 119.285 65.0853 119.285 64.84C119.285 64.5947 119.28 64.392 119.269 64.232C119.237 63.4213 119.024 62.808 118.629 62.392C118.235 61.9653 117.707 61.752 117.045 61.752C116.384 61.752 115.851 61.9653 115.445 62.392C115.051 62.808 114.843 63.4213 114.821 64.232C114.811 64.392 114.805 64.5947 114.805 64.84C114.805 65.0853 114.811 65.288 114.821 65.448C114.843 66.2587 115.051 66.8773 115.445 67.304C115.851 67.72 116.384 67.928 117.045 67.928Z" fill="#717974"></path><path d="M123.209 69C123.102 69 123.011 68.968 122.937 68.904C122.873 68.8293 122.841 68.7387 122.841 68.632V58.008C122.841 57.9013 122.873 57.816 122.937 57.752C123.011 57.6773 123.102 57.64 123.209 57.64H123.961C124.078 57.64 124.169 57.6773 124.233 57.752C124.297 57.816 124.329 57.9013 124.329 58.008V68.632C124.329 68.7387 124.297 68.8293 124.233 68.904C124.169 68.968 124.078 69 123.961 69H123.209Z" fill="#717974"></path></svg>